<svg width="1200" height="480" viewBox="0 0 1200 480" xmlns="http://www.w3.org/2000/svg">
  <defs>
    <linearGradient id="bg3" x1="0%" y1="0%" x2="100%" y2="100%">
      <stop offset="0%" stop-color="#9a3412"/>
      <stop offset="55%" stop-color="#ea580c"/>
      <stop offset="100%" stop-color="#f59e0b"/>
    </linearGradient>
    <radialGradient id="glow3" cx="75%" cy="25%" r="65%">
      <stop offset="0%" stop-color="#ffffff" stop-opacity="0.22"/>
      <stop offset="100%" stop-color="#ffffff" stop-opacity="0"/>
    </radialGradient>
  </defs>
  <rect width="1200" height="480" fill="url(#bg3)"/>
  <rect width="1200" height="480" fill="url(#glow3)"/>

  <g transform="translate(850,110)" opacity="0.92">
    <rect x="0" y="100" width="220" height="140" rx="12" fill="#ffffff" opacity="0.14"/>
    <path d="M0 100 L18 25 L202 25 L220 100 Z" fill="#ffffff" opacity="0.22"/>
    <circle cx="110" cy="25" r="20" fill="#ffffff" opacity="0.3"/>
    <rect x="30" y="130" width="60" height="60" rx="6" fill="#ffffff" opacity="0.18"/>
    <rect x="130" y="130" width="60" height="60" rx="6" fill="#ffffff" opacity="0.18"/>
  </g>

  <g transform="translate(150,300)" opacity="0.4">
    <path d="M0 40 L20 0 L40 40 Z" fill="#ffffff"/>
    <path d="M60 40 L80 0 L100 40 Z" fill="#ffffff"/>
  </g>

  <g opacity="0.55">
    <circle cx="120" cy="90" r="6" fill="#fef3c7"/>
    <circle cx="1120" cy="360" r="7" fill="#fef3c7"/>
    <circle cx="1160" cy="120" r="5" fill="#ffffff"/>
    <circle cx="60" cy="400" r="5" fill="#ffffff"/>
  </g>
</svg>
